<?xml version="1.0" standalone="no"?>
<svg xmlns="http://www.w3.org/2000/svg" version="1.1" width="258" height="258">
	<!-- Created with https://api.qrserver.com (QR Code API, see goQR.me/api for information) -->
	<title>QR Code</title>
	<desc>BEGIN:VCARD
VERSION:2.1
FN:John Doe
N:Doe;John
TEL;CELL:+123456789012
EMAIL;WORK;INTERNET:vvv.xxx@yyy.zz
END:VCARD
</desc>
	<rect style="fill:rgb(255, 255, 255);fill-opacity:1" x="0" y="0" width="258" height="258" />
	<g id="elements">
		<path style="fill:rgb(0, 0, 0)" d="M 6,6 l 6,0 0,6 -6,0 z M 12,6 l 6,0 0,6 -6,0 z M 18,6 l 6,0 0,6 -6,0 z M 24,6 l 6,0 0,6 -6,0 z M 30,6 l 6,0 0,6 -6,0 z M 36,6 l 6,0 0,6 -6,0 z M 42,6 l 6,0 0,6 -6,0 z M 60,6 l 6,0 0,6 -6,0 z M 72,6 l 6,0 0,6 -6,0 z M 96,6 l 6,0 0,6 -6,0 z M 102,6 l 6,0 0,6 -6,0 z M 120,6 l 6,0 0,6 -6,0 z M 144,6 l 6,0 0,6 -6,0 z M 174,6 l 6,0 0,6 -6,0 z M 180,6 l 6,0 0,6 -6,0 z M 210,6 l 6,0 0,6 -6,0 z M 216,6 l 6,0 0,6 -6,0 z M 222,6 l 6,0 0,6 -6,0 z M 228,6 l 6,0 0,6 -6,0 z M 234,6 l 6,0 0,6 -6,0 z M 240,6 l 6,0 0,6 -6,0 z M 246,6 l 6,0 0,6 -6,0 z M 6,12 l 6,0 0,6 -6,0 z M 42,12 l 6,0 0,6 -6,0 z M 54,12 l 6,0 0,6 -6,0 z M 72,12 l 6,0 0,6 -6,0 z M 78,12 l 6,0 0,6 -6,0 z M 102,12 l 6,0 0,6 -6,0 z M 114,12 l 6,0 0,6 -6,0 z M 132,12 l 6,0 0,6 -6,0 z M 138,12 l 6,0 0,6 -6,0 z M 162,12 l 6,0 0,6 -6,0 z M 168,12 l 6,0 0,6 -6,0 z M 180,12 l 6,0 0,6 -6,0 z M 210,12 l 6,0 0,6 -6,0 z M 246,12 l 6,0 0,6 -6,0 z M 6,18 l 6,0 0,6 -6,0 z M 18,18 l 6,0 0,6 -6,0 z M 24,18 l 6,0 0,6 -6,0 z M 30,18 l 6,0 0,6 -6,0 z M 42,18 l 6,0 0,6 -6,0 z M 60,18 l 6,0 0,6 -6,0 z M 66,18 l 6,0 0,6 -6,0 z M 72,18 l 6,0 0,6 -6,0 z M 90,18 l 6,0 0,6 -6,0 z M 96,18 l 6,0 0,6 -6,0 z M 102,18 l 6,0 0,6 -6,0 z M 126,18 l 6,0 0,6 -6,0 z M 138,18 l 6,0 0,6 -6,0 z M 144,18 l 6,0 0,6 -6,0 z M 156,18 l 6,0 0,6 -6,0 z M 162,18 l 6,0 0,6 -6,0 z M 168,18 l 6,0 0,6 -6,0 z M 180,18 l 6,0 0,6 -6,0 z M 186,18 l 6,0 0,6 -6,0 z M 192,18 l 6,0 0,6 -6,0 z M 210,18 l 6,0 0,6 -6,0 z M 222,18 l 6,0 0,6 -6,0 z M 228,18 l 6,0 0,6 -6,0 z M 234,18 l 6,0 0,6 -6,0 z M 246,18 l 6,0 0,6 -6,0 z M 6,24 l 6,0 0,6 -6,0 z M 18,24 l 6,0 0,6 -6,0 z M 24,24 l 6,0 0,6 -6,0 z M 30,24 l 6,0 0,6 -6,0 z M 42,24 l 6,0 0,6 -6,0 z M 54,24 l 6,0 0,6 -6,0 z M 72,24 l 6,0 0,6 -6,0 z M 114,24 l 6,0 0,6 -6,0 z M 120,24 l 6,0 0,6 -6,0 z M 132,24 l 6,0 0,6 -6,0 z M 138,24 l 6,0 0,6 -6,0 z M 144,24 l 6,0 0,6 -6,0 z M 162,24 l 6,0 0,6 -6,0 z M 210,24 l 6,0 0,6 -6,0 z M 222,24 l 6,0 0,6 -6,0 z M 228,24 l 6,0 0,6 -6,0 z M 234,24 l 6,0 0,6 -6,0 z M 246,24 l 6,0 0,6 -6,0 z M 6,30 l 6,0 0,6 -6,0 z M 18,30 l 6,0 0,6 -6,0 z M 24,30 l 6,0 0,6 -6,0 z M 30,30 l 6,0 0,6 -6,0 z M 42,30 l 6,0 0,6 -6,0 z M 60,30 l 6,0 0,6 -6,0 z M 72,30 l 6,0 0,6 -6,0 z M 84,30 l 6,0 0,6 -6,0 z M 90,30 l 6,0 0,6 -6,0 z M 96,30 l 6,0 0,6 -6,0 z M 102,30 l 6,0 0,6 -6,0 z M 108,30 l 6,0 0,6 -6,0 z M 126,30 l 6,0 0,6 -6,0 z M 132,30 l 6,0 0,6 -6,0 z M 138,30 l 6,0 0,6 -6,0 z M 150,30 l 6,0 0,6 -6,0 z M 156,30 l 6,0 0,6 -6,0 z M 186,30 l 6,0 0,6 -6,0 z M 198,30 l 6,0 0,6 -6,0 z M 210,30 l 6,0 0,6 -6,0 z M 222,30 l 6,0 0,6 -6,0 z M 228,30 l 6,0 0,6 -6,0 z M 234,30 l 6,0 0,6 -6,0 z M 246,30 l 6,0 0,6 -6,0 z M 6,36 l 6,0 0,6 -6,0 z M 42,36 l 6,0 0,6 -6,0 z M 54,36 l 6,0 0,6 -6,0 z M 60,36 l 6,0 0,6 -6,0 z M 66,36 l 6,0 0,6 -6,0 z M 78,36 l 6,0 0,6 -6,0 z M 108,36 l 6,0 0,6 -6,0 z M 114,36 l 6,0 0,6 -6,0 z M 120,36 l 6,0 0,6 -6,0 z M 132,36 l 6,0 0,6 -6,0 z M 138,36 l 6,0 0,6 -6,0 z M 144,36 l 6,0 0,6 -6,0 z M 156,36 l 6,0 0,6 -6,0 z M 162,36 l 6,0 0,6 -6,0 z M 168,36 l 6,0 0,6 -6,0 z M 174,36 l 6,0 0,6 -6,0 z M 186,36 l 6,0 0,6 -6,0 z M 192,36 l 6,0 0,6 -6,0 z M 210,36 l 6,0 0,6 -6,0 z M 246,36 l 6,0 0,6 -6,0 z M 6,42 l 6,0 0,6 -6,0 z M 12,42 l 6,0 0,6 -6,0 z M 18,42 l 6,0 0,6 -6,0 z M 24,42 l 6,0 0,6 -6,0 z M 30,42 l 6,0 0,6 -6,0 z M 36,42 l 6,0 0,6 -6,0 z M 42,42 l 6,0 0,6 -6,0 z M 54,42 l 6,0 0,6 -6,0 z M 66,42 l 6,0 0,6 -6,0 z M 78,42 l 6,0 0,6 -6,0 z M 90,42 l 6,0 0,6 -6,0 z M 102,42 l 6,0 0,6 -6,0 z M 114,42 l 6,0 0,6 -6,0 z M 126,42 l 6,0 0,6 -6,0 z M 138,42 l 6,0 0,6 -6,0 z M 150,42 l 6,0 0,6 -6,0 z M 162,42 l 6,0 0,6 -6,0 z M 174,42 l 6,0 0,6 -6,0 z M 186,42 l 6,0 0,6 -6,0 z M 198,42 l 6,0 0,6 -6,0 z M 210,42 l 6,0 0,6 -6,0 z M 216,42 l 6,0 0,6 -6,0 z M 222,42 l 6,0 0,6 -6,0 z M 228,42 l 6,0 0,6 -6,0 z M 234,42 l 6,0 0,6 -6,0 z M 240,42 l 6,0 0,6 -6,0 z M 246,42 l 6,0 0,6 -6,0 z M 66,48 l 6,0 0,6 -6,0 z M 72,48 l 6,0 0,6 -6,0 z M 84,48 l 6,0 0,6 -6,0 z M 102,48 l 6,0 0,6 -6,0 z M 120,48 l 6,0 0,6 -6,0 z M 126,48 l 6,0 0,6 -6,0 z M 132,48 l 6,0 0,6 -6,0 z M 138,48 l 6,0 0,6 -6,0 z M 144,48 l 6,0 0,6 -6,0 z M 174,48 l 6,0 0,6 -6,0 z M 186,48 l 6,0 0,6 -6,0 z M 192,48 l 6,0 0,6 -6,0 z M 198,48 l 6,0 0,6 -6,0 z M 6,54 l 6,0 0,6 -6,0 z M 12,54 l 6,0 0,6 -6,0 z M 18,54 l 6,0 0,6 -6,0 z M 24,54 l 6,0 0,6 -6,0 z M 30,54 l 6,0 0,6 -6,0 z M 42,54 l 6,0 0,6 -6,0 z M 48,54 l 6,0 0,6 -6,0 z M 54,54 l 6,0 0,6 -6,0 z M 60,54 l 6,0 0,6 -6,0 z M 90,54 l 6,0 0,6 -6,0 z M 108,54 l 6,0 0,6 -6,0 z M 114,54 l 6,0 0,6 -6,0 z M 120,54 l 6,0 0,6 -6,0 z M 144,54 l 6,0 0,6 -6,0 z M 150,54 l 6,0 0,6 -6,0 z M 156,54 l 6,0 0,6 -6,0 z M 186,54 l 6,0 0,6 -6,0 z M 192,54 l 6,0 0,6 -6,0 z M 204,54 l 6,0 0,6 -6,0 z M 216,54 l 6,0 0,6 -6,0 z M 228,54 l 6,0 0,6 -6,0 z M 240,54 l 6,0 0,6 -6,0 z M 18,60 l 6,0 0,6 -6,0 z M 24,60 l 6,0 0,6 -6,0 z M 30,60 l 6,0 0,6 -6,0 z M 48,60 l 6,0 0,6 -6,0 z M 54,60 l 6,0 0,6 -6,0 z M 66,60 l 6,0 0,6 -6,0 z M 84,60 l 6,0 0,6 -6,0 z M 102,60 l 6,0 0,6 -6,0 z M 108,60 l 6,0 0,6 -6,0 z M 114,60 l 6,0 0,6 -6,0 z M 126,60 l 6,0 0,6 -6,0 z M 132,60 l 6,0 0,6 -6,0 z M 138,60 l 6,0 0,6 -6,0 z M 144,60 l 6,0 0,6 -6,0 z M 156,60 l 6,0 0,6 -6,0 z M 174,60 l 6,0 0,6 -6,0 z M 180,60 l 6,0 0,6 -6,0 z M 192,60 l 6,0 0,6 -6,0 z M 198,60 l 6,0 0,6 -6,0 z M 204,60 l 6,0 0,6 -6,0 z M 228,60 l 6,0 0,6 -6,0 z M 6,66 l 6,0 0,6 -6,0 z M 12,66 l 6,0 0,6 -6,0 z M 18,66 l 6,0 0,6 -6,0 z M 42,66 l 6,0 0,6 -6,0 z M 84,66 l 6,0 0,6 -6,0 z M 90,66 l 6,0 0,6 -6,0 z M 102,66 l 6,0 0,6 -6,0 z M 108,66 l 6,0 0,6 -6,0 z M 126,66 l 6,0 0,6 -6,0 z M 150,66 l 6,0 0,6 -6,0 z M 156,66 l 6,0 0,6 -6,0 z M 162,66 l 6,0 0,6 -6,0 z M 168,66 l 6,0 0,6 -6,0 z M 174,66 l 6,0 0,6 -6,0 z M 180,66 l 6,0 0,6 -6,0 z M 192,66 l 6,0 0,6 -6,0 z M 204,66 l 6,0 0,6 -6,0 z M 228,66 l 6,0 0,6 -6,0 z M 6,72 l 6,0 0,6 -6,0 z M 18,72 l 6,0 0,6 -6,0 z M 36,72 l 6,0 0,6 -6,0 z M 54,72 l 6,0 0,6 -6,0 z M 66,72 l 6,0 0,6 -6,0 z M 72,72 l 6,0 0,6 -6,0 z M 84,72 l 6,0 0,6 -6,0 z M 96,72 l 6,0 0,6 -6,0 z M 108,72 l 6,0 0,6 -6,0 z M 114,72 l 6,0 0,6 -6,0 z M 126,72 l 6,0 0,6 -6,0 z M 132,72 l 6,0 0,6 -6,0 z M 138,72 l 6,0 0,6 -6,0 z M 162,72 l 6,0 0,6 -6,0 z M 174,72 l 6,0 0,6 -6,0 z M 180,72 l 6,0 0,6 -6,0 z M 186,72 l 6,0 0,6 -6,0 z M 192,72 l 6,0 0,6 -6,0 z M 198,72 l 6,0 0,6 -6,0 z M 222,72 l 6,0 0,6 -6,0 z M 246,72 l 6,0 0,6 -6,0 z M 18,78 l 6,0 0,6 -6,0 z M 24,78 l 6,0 0,6 -6,0 z M 30,78 l 6,0 0,6 -6,0 z M 42,78 l 6,0 0,6 -6,0 z M 48,78 l 6,0 0,6 -6,0 z M 54,78 l 6,0 0,6 -6,0 z M 90,78 l 6,0 0,6 -6,0 z M 96,78 l 6,0 0,6 -6,0 z M 102,78 l 6,0 0,6 -6,0 z M 126,78 l 6,0 0,6 -6,0 z M 132,78 l 6,0 0,6 -6,0 z M 138,78 l 6,0 0,6 -6,0 z M 162,78 l 6,0 0,6 -6,0 z M 204,78 l 6,0 0,6 -6,0 z M 210,78 l 6,0 0,6 -6,0 z M 222,78 l 6,0 0,6 -6,0 z M 240,78 l 6,0 0,6 -6,0 z M 246,78 l 6,0 0,6 -6,0 z M 18,84 l 6,0 0,6 -6,0 z M 54,84 l 6,0 0,6 -6,0 z M 66,84 l 6,0 0,6 -6,0 z M 78,84 l 6,0 0,6 -6,0 z M 96,84 l 6,0 0,6 -6,0 z M 114,84 l 6,0 0,6 -6,0 z M 138,84 l 6,0 0,6 -6,0 z M 144,84 l 6,0 0,6 -6,0 z M 150,84 l 6,0 0,6 -6,0 z M 186,84 l 6,0 0,6 -6,0 z M 192,84 l 6,0 0,6 -6,0 z M 198,84 l 6,0 0,6 -6,0 z M 204,84 l 6,0 0,6 -6,0 z M 210,84 l 6,0 0,6 -6,0 z M 216,84 l 6,0 0,6 -6,0 z M 222,84 l 6,0 0,6 -6,0 z M 228,84 l 6,0 0,6 -6,0 z M 240,84 l 6,0 0,6 -6,0 z M 6,90 l 6,0 0,6 -6,0 z M 12,90 l 6,0 0,6 -6,0 z M 24,90 l 6,0 0,6 -6,0 z M 42,90 l 6,0 0,6 -6,0 z M 54,90 l 6,0 0,6 -6,0 z M 60,90 l 6,0 0,6 -6,0 z M 90,90 l 6,0 0,6 -6,0 z M 96,90 l 6,0 0,6 -6,0 z M 102,90 l 6,0 0,6 -6,0 z M 114,90 l 6,0 0,6 -6,0 z M 126,90 l 6,0 0,6 -6,0 z M 144,90 l 6,0 0,6 -6,0 z M 150,90 l 6,0 0,6 -6,0 z M 168,90 l 6,0 0,6 -6,0 z M 174,90 l 6,0 0,6 -6,0 z M 192,90 l 6,0 0,6 -6,0 z M 198,90 l 6,0 0,6 -6,0 z M 204,90 l 6,0 0,6 -6,0 z M 210,90 l 6,0 0,6 -6,0 z M 216,90 l 6,0 0,6 -6,0 z M 228,90 l 6,0 0,6 -6,0 z M 234,90 l 6,0 0,6 -6,0 z M 246,90 l 6,0 0,6 -6,0 z M 6,96 l 6,0 0,6 -6,0 z M 12,96 l 6,0 0,6 -6,0 z M 24,96 l 6,0 0,6 -6,0 z M 36,96 l 6,0 0,6 -6,0 z M 54,96 l 6,0 0,6 -6,0 z M 60,96 l 6,0 0,6 -6,0 z M 78,96 l 6,0 0,6 -6,0 z M 90,96 l 6,0 0,6 -6,0 z M 96,96 l 6,0 0,6 -6,0 z M 114,96 l 6,0 0,6 -6,0 z M 132,96 l 6,0 0,6 -6,0 z M 138,96 l 6,0 0,6 -6,0 z M 144,96 l 6,0 0,6 -6,0 z M 174,96 l 6,0 0,6 -6,0 z M 186,96 l 6,0 0,6 -6,0 z M 204,96 l 6,0 0,6 -6,0 z M 228,96 l 6,0 0,6 -6,0 z M 6,102 l 6,0 0,6 -6,0 z M 12,102 l 6,0 0,6 -6,0 z M 18,102 l 6,0 0,6 -6,0 z M 36,102 l 6,0 0,6 -6,0 z M 42,102 l 6,0 0,6 -6,0 z M 48,102 l 6,0 0,6 -6,0 z M 54,102 l 6,0 0,6 -6,0 z M 60,102 l 6,0 0,6 -6,0 z M 66,102 l 6,0 0,6 -6,0 z M 78,102 l 6,0 0,6 -6,0 z M 90,102 l 6,0 0,6 -6,0 z M 96,102 l 6,0 0,6 -6,0 z M 108,102 l 6,0 0,6 -6,0 z M 114,102 l 6,0 0,6 -6,0 z M 132,102 l 6,0 0,6 -6,0 z M 138,102 l 6,0 0,6 -6,0 z M 150,102 l 6,0 0,6 -6,0 z M 162,102 l 6,0 0,6 -6,0 z M 186,102 l 6,0 0,6 -6,0 z M 204,102 l 6,0 0,6 -6,0 z M 222,102 l 6,0 0,6 -6,0 z M 30,108 l 6,0 0,6 -6,0 z M 48,108 l 6,0 0,6 -6,0 z M 54,108 l 6,0 0,6 -6,0 z M 60,108 l 6,0 0,6 -6,0 z M 96,108 l 6,0 0,6 -6,0 z M 102,108 l 6,0 0,6 -6,0 z M 126,108 l 6,0 0,6 -6,0 z M 132,108 l 6,0 0,6 -6,0 z M 156,108 l 6,0 0,6 -6,0 z M 174,108 l 6,0 0,6 -6,0 z M 216,108 l 6,0 0,6 -6,0 z M 222,108 l 6,0 0,6 -6,0 z M 228,108 l 6,0 0,6 -6,0 z M 234,108 l 6,0 0,6 -6,0 z M 246,108 l 6,0 0,6 -6,0 z M 18,114 l 6,0 0,6 -6,0 z M 24,114 l 6,0 0,6 -6,0 z M 36,114 l 6,0 0,6 -6,0 z M 42,114 l 6,0 0,6 -6,0 z M 54,114 l 6,0 0,6 -6,0 z M 66,114 l 6,0 0,6 -6,0 z M 114,114 l 6,0 0,6 -6,0 z M 132,114 l 6,0 0,6 -6,0 z M 150,114 l 6,0 0,6 -6,0 z M 156,114 l 6,0 0,6 -6,0 z M 162,114 l 6,0 0,6 -6,0 z M 168,114 l 6,0 0,6 -6,0 z M 192,114 l 6,0 0,6 -6,0 z M 222,114 l 6,0 0,6 -6,0 z M 228,114 l 6,0 0,6 -6,0 z M 240,114 l 6,0 0,6 -6,0 z M 12,120 l 6,0 0,6 -6,0 z M 18,120 l 6,0 0,6 -6,0 z M 36,120 l 6,0 0,6 -6,0 z M 48,120 l 6,0 0,6 -6,0 z M 54,120 l 6,0 0,6 -6,0 z M 60,120 l 6,0 0,6 -6,0 z M 66,120 l 6,0 0,6 -6,0 z M 90,120 l 6,0 0,6 -6,0 z M 96,120 l 6,0 0,6 -6,0 z M 126,120 l 6,0 0,6 -6,0 z M 132,120 l 6,0 0,6 -6,0 z M 144,120 l 6,0 0,6 -6,0 z M 150,120 l 6,0 0,6 -6,0 z M 162,120 l 6,0 0,6 -6,0 z M 180,120 l 6,0 0,6 -6,0 z M 192,120 l 6,0 0,6 -6,0 z M 204,120 l 6,0 0,6 -6,0 z M 222,120 l 6,0 0,6 -6,0 z M 228,120 l 6,0 0,6 -6,0 z M 234,120 l 6,0 0,6 -6,0 z M 240,120 l 6,0 0,6 -6,0 z M 12,126 l 6,0 0,6 -6,0 z M 42,126 l 6,0 0,6 -6,0 z M 48,126 l 6,0 0,6 -6,0 z M 54,126 l 6,0 0,6 -6,0 z M 66,126 l 6,0 0,6 -6,0 z M 72,126 l 6,0 0,6 -6,0 z M 78,126 l 6,0 0,6 -6,0 z M 96,126 l 6,0 0,6 -6,0 z M 114,126 l 6,0 0,6 -6,0 z M 132,126 l 6,0 0,6 -6,0 z M 144,126 l 6,0 0,6 -6,0 z M 162,126 l 6,0 0,6 -6,0 z M 210,126 l 6,0 0,6 -6,0 z M 222,126 l 6,0 0,6 -6,0 z M 234,126 l 6,0 0,6 -6,0 z M 246,126 l 6,0 0,6 -6,0 z M 6,132 l 6,0 0,6 -6,0 z M 48,132 l 6,0 0,6 -6,0 z M 54,132 l 6,0 0,6 -6,0 z M 66,132 l 6,0 0,6 -6,0 z M 90,132 l 6,0 0,6 -6,0 z M 96,132 l 6,0 0,6 -6,0 z M 102,132 l 6,0 0,6 -6,0 z M 126,132 l 6,0 0,6 -6,0 z M 180,132 l 6,0 0,6 -6,0 z M 186,132 l 6,0 0,6 -6,0 z M 210,132 l 6,0 0,6 -6,0 z M 216,132 l 6,0 0,6 -6,0 z M 222,132 l 6,0 0,6 -6,0 z M 228,132 l 6,0 0,6 -6,0 z M 234,132 l 6,0 0,6 -6,0 z M 6,138 l 6,0 0,6 -6,0 z M 12,138 l 6,0 0,6 -6,0 z M 36,138 l 6,0 0,6 -6,0 z M 42,138 l 6,0 0,6 -6,0 z M 48,138 l 6,0 0,6 -6,0 z M 54,138 l 6,0 0,6 -6,0 z M 60,138 l 6,0 0,6 -6,0 z M 72,138 l 6,0 0,6 -6,0 z M 78,138 l 6,0 0,6 -6,0 z M 108,138 l 6,0 0,6 -6,0 z M 114,138 l 6,0 0,6 -6,0 z M 120,138 l 6,0 0,6 -6,0 z M 144,138 l 6,0 0,6 -6,0 z M 162,138 l 6,0 0,6 -6,0 z M 168,138 l 6,0 0,6 -6,0 z M 174,138 l 6,0 0,6 -6,0 z M 192,138 l 6,0 0,6 -6,0 z M 222,138 l 6,0 0,6 -6,0 z M 228,138 l 6,0 0,6 -6,0 z M 234,138 l 6,0 0,6 -6,0 z M 246,138 l 6,0 0,6 -6,0 z M 12,144 l 6,0 0,6 -6,0 z M 18,144 l 6,0 0,6 -6,0 z M 48,144 l 6,0 0,6 -6,0 z M 60,144 l 6,0 0,6 -6,0 z M 72,144 l 6,0 0,6 -6,0 z M 84,144 l 6,0 0,6 -6,0 z M 102,144 l 6,0 0,6 -6,0 z M 114,144 l 6,0 0,6 -6,0 z M 120,144 l 6,0 0,6 -6,0 z M 126,144 l 6,0 0,6 -6,0 z M 132,144 l 6,0 0,6 -6,0 z M 150,144 l 6,0 0,6 -6,0 z M 174,144 l 6,0 0,6 -6,0 z M 186,144 l 6,0 0,6 -6,0 z M 210,144 l 6,0 0,6 -6,0 z M 222,144 l 6,0 0,6 -6,0 z M 228,144 l 6,0 0,6 -6,0 z M 246,144 l 6,0 0,6 -6,0 z M 6,150 l 6,0 0,6 -6,0 z M 12,150 l 6,0 0,6 -6,0 z M 18,150 l 6,0 0,6 -6,0 z M 24,150 l 6,0 0,6 -6,0 z M 42,150 l 6,0 0,6 -6,0 z M 60,150 l 6,0 0,6 -6,0 z M 66,150 l 6,0 0,6 -6,0 z M 72,150 l 6,0 0,6 -6,0 z M 78,150 l 6,0 0,6 -6,0 z M 90,150 l 6,0 0,6 -6,0 z M 108,150 l 6,0 0,6 -6,0 z M 114,150 l 6,0 0,6 -6,0 z M 120,150 l 6,0 0,6 -6,0 z M 126,150 l 6,0 0,6 -6,0 z M 138,150 l 6,0 0,6 -6,0 z M 144,150 l 6,0 0,6 -6,0 z M 156,150 l 6,0 0,6 -6,0 z M 162,150 l 6,0 0,6 -6,0 z M 186,150 l 6,0 0,6 -6,0 z M 192,150 l 6,0 0,6 -6,0 z M 222,150 l 6,0 0,6 -6,0 z M 228,150 l 6,0 0,6 -6,0 z M 246,150 l 6,0 0,6 -6,0 z M 12,156 l 6,0 0,6 -6,0 z M 24,156 l 6,0 0,6 -6,0 z M 84,156 l 6,0 0,6 -6,0 z M 96,156 l 6,0 0,6 -6,0 z M 102,156 l 6,0 0,6 -6,0 z M 108,156 l 6,0 0,6 -6,0 z M 114,156 l 6,0 0,6 -6,0 z M 126,156 l 6,0 0,6 -6,0 z M 132,156 l 6,0 0,6 -6,0 z M 144,156 l 6,0 0,6 -6,0 z M 150,156 l 6,0 0,6 -6,0 z M 168,156 l 6,0 0,6 -6,0 z M 174,156 l 6,0 0,6 -6,0 z M 180,156 l 6,0 0,6 -6,0 z M 186,156 l 6,0 0,6 -6,0 z M 198,156 l 6,0 0,6 -6,0 z M 204,156 l 6,0 0,6 -6,0 z M 210,156 l 6,0 0,6 -6,0 z M 222,156 l 6,0 0,6 -6,0 z M 234,156 l 6,0 0,6 -6,0 z M 240,156 l 6,0 0,6 -6,0 z M 12,162 l 6,0 0,6 -6,0 z M 24,162 l 6,0 0,6 -6,0 z M 42,162 l 6,0 0,6 -6,0 z M 48,162 l 6,0 0,6 -6,0 z M 54,162 l 6,0 0,6 -6,0 z M 60,162 l 6,0 0,6 -6,0 z M 84,162 l 6,0 0,6 -6,0 z M 90,162 l 6,0 0,6 -6,0 z M 96,162 l 6,0 0,6 -6,0 z M 108,162 l 6,0 0,6 -6,0 z M 132,162 l 6,0 0,6 -6,0 z M 138,162 l 6,0 0,6 -6,0 z M 150,162 l 6,0 0,6 -6,0 z M 168,162 l 6,0 0,6 -6,0 z M 180,162 l 6,0 0,6 -6,0 z M 198,162 l 6,0 0,6 -6,0 z M 204,162 l 6,0 0,6 -6,0 z M 216,162 l 6,0 0,6 -6,0 z M 222,162 l 6,0 0,6 -6,0 z M 228,162 l 6,0 0,6 -6,0 z M 234,162 l 6,0 0,6 -6,0 z M 6,168 l 6,0 0,6 -6,0 z M 24,168 l 6,0 0,6 -6,0 z M 30,168 l 6,0 0,6 -6,0 z M 36,168 l 6,0 0,6 -6,0 z M 60,168 l 6,0 0,6 -6,0 z M 66,168 l 6,0 0,6 -6,0 z M 84,168 l 6,0 0,6 -6,0 z M 96,168 l 6,0 0,6 -6,0 z M 108,168 l 6,0 0,6 -6,0 z M 114,168 l 6,0 0,6 -6,0 z M 120,168 l 6,0 0,6 -6,0 z M 132,168 l 6,0 0,6 -6,0 z M 144,168 l 6,0 0,6 -6,0 z M 162,168 l 6,0 0,6 -6,0 z M 192,168 l 6,0 0,6 -6,0 z M 210,168 l 6,0 0,6 -6,0 z M 216,168 l 6,0 0,6 -6,0 z M 222,168 l 6,0 0,6 -6,0 z M 228,168 l 6,0 0,6 -6,0 z M 234,168 l 6,0 0,6 -6,0 z M 12,174 l 6,0 0,6 -6,0 z M 42,174 l 6,0 0,6 -6,0 z M 48,174 l 6,0 0,6 -6,0 z M 54,174 l 6,0 0,6 -6,0 z M 90,174 l 6,0 0,6 -6,0 z M 96,174 l 6,0 0,6 -6,0 z M 102,174 l 6,0 0,6 -6,0 z M 120,174 l 6,0 0,6 -6,0 z M 126,174 l 6,0 0,6 -6,0 z M 144,174 l 6,0 0,6 -6,0 z M 150,174 l 6,0 0,6 -6,0 z M 162,174 l 6,0 0,6 -6,0 z M 186,174 l 6,0 0,6 -6,0 z M 192,174 l 6,0 0,6 -6,0 z M 198,174 l 6,0 0,6 -6,0 z M 228,174 l 6,0 0,6 -6,0 z M 234,174 l 6,0 0,6 -6,0 z M 240,174 l 6,0 0,6 -6,0 z M 246,174 l 6,0 0,6 -6,0 z M 6,180 l 6,0 0,6 -6,0 z M 12,180 l 6,0 0,6 -6,0 z M 66,180 l 6,0 0,6 -6,0 z M 78,180 l 6,0 0,6 -6,0 z M 96,180 l 6,0 0,6 -6,0 z M 108,180 l 6,0 0,6 -6,0 z M 114,180 l 6,0 0,6 -6,0 z M 144,180 l 6,0 0,6 -6,0 z M 150,180 l 6,0 0,6 -6,0 z M 156,180 l 6,0 0,6 -6,0 z M 168,180 l 6,0 0,6 -6,0 z M 180,180 l 6,0 0,6 -6,0 z M 186,180 l 6,0 0,6 -6,0 z M 198,180 l 6,0 0,6 -6,0 z M 222,180 l 6,0 0,6 -6,0 z M 6,186 l 6,0 0,6 -6,0 z M 18,186 l 6,0 0,6 -6,0 z M 36,186 l 6,0 0,6 -6,0 z M 42,186 l 6,0 0,6 -6,0 z M 54,186 l 6,0 0,6 -6,0 z M 60,186 l 6,0 0,6 -6,0 z M 90,186 l 6,0 0,6 -6,0 z M 96,186 l 6,0 0,6 -6,0 z M 102,186 l 6,0 0,6 -6,0 z M 108,186 l 6,0 0,6 -6,0 z M 114,186 l 6,0 0,6 -6,0 z M 126,186 l 6,0 0,6 -6,0 z M 138,186 l 6,0 0,6 -6,0 z M 144,186 l 6,0 0,6 -6,0 z M 156,186 l 6,0 0,6 -6,0 z M 162,186 l 6,0 0,6 -6,0 z M 168,186 l 6,0 0,6 -6,0 z M 180,186 l 6,0 0,6 -6,0 z M 186,186 l 6,0 0,6 -6,0 z M 192,186 l 6,0 0,6 -6,0 z M 198,186 l 6,0 0,6 -6,0 z M 204,186 l 6,0 0,6 -6,0 z M 216,186 l 6,0 0,6 -6,0 z M 234,186 l 6,0 0,6 -6,0 z M 240,186 l 6,0 0,6 -6,0 z M 246,186 l 6,0 0,6 -6,0 z M 6,192 l 6,0 0,6 -6,0 z M 30,192 l 6,0 0,6 -6,0 z M 36,192 l 6,0 0,6 -6,0 z M 48,192 l 6,0 0,6 -6,0 z M 60,192 l 6,0 0,6 -6,0 z M 78,192 l 6,0 0,6 -6,0 z M 96,192 l 6,0 0,6 -6,0 z M 114,192 l 6,0 0,6 -6,0 z M 132,192 l 6,0 0,6 -6,0 z M 138,192 l 6,0 0,6 -6,0 z M 150,192 l 6,0 0,6 -6,0 z M 162,192 l 6,0 0,6 -6,0 z M 168,192 l 6,0 0,6 -6,0 z M 186,192 l 6,0 0,6 -6,0 z M 204,192 l 6,0 0,6 -6,0 z M 228,192 l 6,0 0,6 -6,0 z M 6,198 l 6,0 0,6 -6,0 z M 24,198 l 6,0 0,6 -6,0 z M 30,198 l 6,0 0,6 -6,0 z M 42,198 l 6,0 0,6 -6,0 z M 48,198 l 6,0 0,6 -6,0 z M 60,198 l 6,0 0,6 -6,0 z M 78,198 l 6,0 0,6 -6,0 z M 96,198 l 6,0 0,6 -6,0 z M 102,198 l 6,0 0,6 -6,0 z M 108,198 l 6,0 0,6 -6,0 z M 138,198 l 6,0 0,6 -6,0 z M 150,198 l 6,0 0,6 -6,0 z M 156,198 l 6,0 0,6 -6,0 z M 162,198 l 6,0 0,6 -6,0 z M 174,198 l 6,0 0,6 -6,0 z M 192,198 l 6,0 0,6 -6,0 z M 198,198 l 6,0 0,6 -6,0 z M 204,198 l 6,0 0,6 -6,0 z M 210,198 l 6,0 0,6 -6,0 z M 216,198 l 6,0 0,6 -6,0 z M 222,198 l 6,0 0,6 -6,0 z M 54,204 l 6,0 0,6 -6,0 z M 60,204 l 6,0 0,6 -6,0 z M 96,204 l 6,0 0,6 -6,0 z M 180,204 l 6,0 0,6 -6,0 z M 186,204 l 6,0 0,6 -6,0 z M 192,204 l 6,0 0,6 -6,0 z M 198,204 l 6,0 0,6 -6,0 z M 222,204 l 6,0 0,6 -6,0 z M 234,204 l 6,0 0,6 -6,0 z M 240,204 l 6,0 0,6 -6,0 z M 6,210 l 6,0 0,6 -6,0 z M 12,210 l 6,0 0,6 -6,0 z M 18,210 l 6,0 0,6 -6,0 z M 24,210 l 6,0 0,6 -6,0 z M 30,210 l 6,0 0,6 -6,0 z M 36,210 l 6,0 0,6 -6,0 z M 42,210 l 6,0 0,6 -6,0 z M 54,210 l 6,0 0,6 -6,0 z M 78,210 l 6,0 0,6 -6,0 z M 102,210 l 6,0 0,6 -6,0 z M 114,210 l 6,0 0,6 -6,0 z M 132,210 l 6,0 0,6 -6,0 z M 150,210 l 6,0 0,6 -6,0 z M 162,210 l 6,0 0,6 -6,0 z M 168,210 l 6,0 0,6 -6,0 z M 180,210 l 6,0 0,6 -6,0 z M 198,210 l 6,0 0,6 -6,0 z M 210,210 l 6,0 0,6 -6,0 z M 222,210 l 6,0 0,6 -6,0 z M 228,210 l 6,0 0,6 -6,0 z M 6,216 l 6,0 0,6 -6,0 z M 42,216 l 6,0 0,6 -6,0 z M 60,216 l 6,0 0,6 -6,0 z M 66,216 l 6,0 0,6 -6,0 z M 72,216 l 6,0 0,6 -6,0 z M 78,216 l 6,0 0,6 -6,0 z M 90,216 l 6,0 0,6 -6,0 z M 102,216 l 6,0 0,6 -6,0 z M 120,216 l 6,0 0,6 -6,0 z M 126,216 l 6,0 0,6 -6,0 z M 132,216 l 6,0 0,6 -6,0 z M 144,216 l 6,0 0,6 -6,0 z M 150,216 l 6,0 0,6 -6,0 z M 174,216 l 6,0 0,6 -6,0 z M 192,216 l 6,0 0,6 -6,0 z M 198,216 l 6,0 0,6 -6,0 z M 222,216 l 6,0 0,6 -6,0 z M 228,216 l 6,0 0,6 -6,0 z M 234,216 l 6,0 0,6 -6,0 z M 6,222 l 6,0 0,6 -6,0 z M 18,222 l 6,0 0,6 -6,0 z M 24,222 l 6,0 0,6 -6,0 z M 30,222 l 6,0 0,6 -6,0 z M 42,222 l 6,0 0,6 -6,0 z M 54,222 l 6,0 0,6 -6,0 z M 72,222 l 6,0 0,6 -6,0 z M 78,222 l 6,0 0,6 -6,0 z M 114,222 l 6,0 0,6 -6,0 z M 120,222 l 6,0 0,6 -6,0 z M 132,222 l 6,0 0,6 -6,0 z M 144,222 l 6,0 0,6 -6,0 z M 186,222 l 6,0 0,6 -6,0 z M 192,222 l 6,0 0,6 -6,0 z M 198,222 l 6,0 0,6 -6,0 z M 204,222 l 6,0 0,6 -6,0 z M 210,222 l 6,0 0,6 -6,0 z M 216,222 l 6,0 0,6 -6,0 z M 222,222 l 6,0 0,6 -6,0 z M 228,222 l 6,0 0,6 -6,0 z M 240,222 l 6,0 0,6 -6,0 z M 6,228 l 6,0 0,6 -6,0 z M 18,228 l 6,0 0,6 -6,0 z M 24,228 l 6,0 0,6 -6,0 z M 30,228 l 6,0 0,6 -6,0 z M 42,228 l 6,0 0,6 -6,0 z M 54,228 l 6,0 0,6 -6,0 z M 66,228 l 6,0 0,6 -6,0 z M 84,228 l 6,0 0,6 -6,0 z M 90,228 l 6,0 0,6 -6,0 z M 96,228 l 6,0 0,6 -6,0 z M 102,228 l 6,0 0,6 -6,0 z M 108,228 l 6,0 0,6 -6,0 z M 126,228 l 6,0 0,6 -6,0 z M 168,228 l 6,0 0,6 -6,0 z M 186,228 l 6,0 0,6 -6,0 z M 198,228 l 6,0 0,6 -6,0 z M 216,228 l 6,0 0,6 -6,0 z M 234,228 l 6,0 0,6 -6,0 z M 240,228 l 6,0 0,6 -6,0 z M 6,234 l 6,0 0,6 -6,0 z M 18,234 l 6,0 0,6 -6,0 z M 24,234 l 6,0 0,6 -6,0 z M 30,234 l 6,0 0,6 -6,0 z M 42,234 l 6,0 0,6 -6,0 z M 54,234 l 6,0 0,6 -6,0 z M 72,234 l 6,0 0,6 -6,0 z M 78,234 l 6,0 0,6 -6,0 z M 90,234 l 6,0 0,6 -6,0 z M 114,234 l 6,0 0,6 -6,0 z M 120,234 l 6,0 0,6 -6,0 z M 132,234 l 6,0 0,6 -6,0 z M 162,234 l 6,0 0,6 -6,0 z M 168,234 l 6,0 0,6 -6,0 z M 174,234 l 6,0 0,6 -6,0 z M 180,234 l 6,0 0,6 -6,0 z M 192,234 l 6,0 0,6 -6,0 z M 204,234 l 6,0 0,6 -6,0 z M 210,234 l 6,0 0,6 -6,0 z M 222,234 l 6,0 0,6 -6,0 z M 228,234 l 6,0 0,6 -6,0 z M 234,234 l 6,0 0,6 -6,0 z M 240,234 l 6,0 0,6 -6,0 z M 6,240 l 6,0 0,6 -6,0 z M 42,240 l 6,0 0,6 -6,0 z M 54,240 l 6,0 0,6 -6,0 z M 60,240 l 6,0 0,6 -6,0 z M 66,240 l 6,0 0,6 -6,0 z M 72,240 l 6,0 0,6 -6,0 z M 102,240 l 6,0 0,6 -6,0 z M 108,240 l 6,0 0,6 -6,0 z M 114,240 l 6,0 0,6 -6,0 z M 120,240 l 6,0 0,6 -6,0 z M 126,240 l 6,0 0,6 -6,0 z M 132,240 l 6,0 0,6 -6,0 z M 150,240 l 6,0 0,6 -6,0 z M 162,240 l 6,0 0,6 -6,0 z M 174,240 l 6,0 0,6 -6,0 z M 186,240 l 6,0 0,6 -6,0 z M 204,240 l 6,0 0,6 -6,0 z M 210,240 l 6,0 0,6 -6,0 z M 216,240 l 6,0 0,6 -6,0 z M 222,240 l 6,0 0,6 -6,0 z M 240,240 l 6,0 0,6 -6,0 z M 246,240 l 6,0 0,6 -6,0 z M 6,246 l 6,0 0,6 -6,0 z M 12,246 l 6,0 0,6 -6,0 z M 18,246 l 6,0 0,6 -6,0 z M 24,246 l 6,0 0,6 -6,0 z M 30,246 l 6,0 0,6 -6,0 z M 36,246 l 6,0 0,6 -6,0 z M 42,246 l 6,0 0,6 -6,0 z M 54,246 l 6,0 0,6 -6,0 z M 66,246 l 6,0 0,6 -6,0 z M 72,246 l 6,0 0,6 -6,0 z M 78,246 l 6,0 0,6 -6,0 z M 102,246 l 6,0 0,6 -6,0 z M 120,246 l 6,0 0,6 -6,0 z M 138,246 l 6,0 0,6 -6,0 z M 144,246 l 6,0 0,6 -6,0 z M 150,246 l 6,0 0,6 -6,0 z M 192,246 l 6,0 0,6 -6,0 z M 216,246 l 6,0 0,6 -6,0 z M 228,246 l 6,0 0,6 -6,0 z M 234,246 l 6,0 0,6 -6,0 z M 240,246 l 6,0 0,6 -6,0 z " />
	</g>
</svg>
